<?xml version="1.0" encoding="UTF-8" standalone="no"?>
<svg
   xmlns:dc="http://purl.org/dc/elements/1.1/"
   xmlns:cc="http://creativecommons.org/ns#"
   xmlns:rdf="http://www.w3.org/1999/02/22-rdf-syntax-ns#"
   xmlns:svg="http://www.w3.org/2000/svg"
   xmlns="http://www.w3.org/2000/svg"
   xmlns:sodipodi="http://sodipodi.sourceforge.net/DTD/sodipodi-0.dtd"
   xmlns:inkscape="http://www.inkscape.org/namespaces/inkscape"
   width="392.06259"
   height="392.06219"
   id="svg3386"
   version="1.1"
   inkscape:version="0.91 r13725"
   sodipodi:docname="HeritageHackersLogo.svg">
  <defs
     id="defs3399" />
  <sodipodi:namedview
     pagecolor="#ffffff"
     bordercolor="#666666"
     borderopacity="1"
     objecttolerance="10"
     gridtolerance="10"
     guidetolerance="10"
     inkscape:pageopacity="0"
     inkscape:pageshadow="2"
     inkscape:window-width="1920"
     inkscape:window-height="1031"
     id="namedview3397"
     showgrid="false"
     showguides="true"
     inkscape:guide-bbox="true"
     inkscape:zoom="2.1680234"
     inkscape:cx="196.0313"
     inkscape:cy="196.0311"
     inkscape:window-x="0"
     inkscape:window-y="25"
     inkscape:window-maximized="1"
     inkscape:current-layer="layer2">
    <sodipodi:guide
       position="192.3411,195.56985"
       orientation="0,1"
       id="guide3404" />
    <sodipodi:guide
       position="196.49235,179.88736"
       orientation="1,0"
       id="guide3406" />
    <sodipodi:guide
       position="202.02734,247.69106"
       orientation="0,1"
       id="guide3408" />
    <sodipodi:guide
       position="196.49235,147.13864"
       orientation="0,1"
       id="guide3410" />
  </sodipodi:namedview>
  <title
     id="title3388">Black Outlined Cog Wheel</title>
  <metadata
     id="metadata4083">image/svg+xml<rdf:RDF>
  <cc:Work
     rdf:about="">
    <dc:format>image/svg+xml</dc:format>
    <dc:type
       rdf:resource="http://purl.org/dc/dcmitype/StillImage" />
    <dc:title>Black Outlined Cog Wheel</dc:title>
  </cc:Work>
</rdf:RDF>
</metadata>
  <g
     id="g3391">
    <title
       id="title3393">Layer 1</title>
    <g
       id="layer1">
      <path
         stroke="#000000"
         d="m179.655975,1l-8.125,46.28101l0.032013,0.030972c-9.932007,1.62302 -19.541016,4.22403 -28.718994,7.688019l0,-0.03101l-30.156006,-36.032011l-28.344002,16.375002l16.094002,44.125031l0.062012,0.031006c-7.684021,6.307983 -14.72702,13.375969 -21.031013,21.062996l-0.030998,-0.094002l-44.125,-16.093994l-16.374998,28.343994l36.031,30.187988c-3.458,9.169983 -6.036011,18.765015 -7.656002,28.687012l-0.032009,-0.031006l-46.280979,8.125l0,32.75l46.280979,8.125l0.032009,-0.031006c1.619991,9.921997 4.198002,19.516968 7.656002,28.687988l-36.031,30.187012l16.374998,28.343994l44.125,-16.093994l0.030998,-0.093994c6.303993,7.687012 13.346992,14.755005 21.031013,21.062012l-0.062012,0.031006l-16.094002,44.125l28.344002,16.375l30.156006,-36.030029l0,-0.031982c9.177979,3.463989 18.786987,6.065002 28.718994,7.687988l-0.032013,0.031006l8.125,46.281006l32.719025,0l8.125,-46.281006l-0.031006,-0.031006c9.928986,-1.619019 19.540985,-4.197998 28.718964,-7.656006l30.187012,36.031006l28.343994,-16.375l-16.125,-44.125c7.666992,-6.291992 14.705994,-13.335022 21,-21l44.156006,16.093994l16.343994,-28.343994l-36,-30.187988c3.459045,-9.171997 6.067017,-18.764038 7.687012,-28.687012l46.281982,-8.093994l0,-32.75l-46.281982,-8.125c-1.620972,-9.913025 -4.231995,-19.494019 -7.687012,-28.656006l36,-30.187988l-16.343994,-28.343025l-44.156006,16.093025c-6.294006,-7.665039 -13.333008,-14.708015 -21,-21l16.125,-44.125031l-28.343994,-16.375002l-30.187012,36.031012c-9.177979,-3.457981 -18.789978,-6.036991 -28.718964,-7.65601l0.031006,-0.030972l-8.125,-46.28101l-32.719025,0l0,0zm16.375,79.687012c63.710022,0 115.375,51.633972 115.375,115.343994c0,63.709961 -51.664978,115.343994 -115.375,115.343994c-63.709991,0 -115.342987,-51.634033 -115.342987,-115.343994c0,-63.710022 51.632996,-115.343994 115.342987,-115.343994z"
         id="path4050"
         stroke-dashoffset="0"
         stroke-miterlimit="4"
         stroke-linejoin="round"
         stroke-linecap="round"
         fill="none" />
    </g>
  </g>
  <g
     inkscape:groupmode="layer"
     id="layer2"
     inkscape:label="Layer 1">
    <path
       style="fill:#ff6600"
       d="m 180.13911,389.64063 c -0.0994,-0.3171 -1.90428,-10.49975 -4.01084,-22.62809 -2.10655,-12.12834 -3.94102,-22.23102 -4.0766,-22.4504 -0.13558,-0.21937 -2.89821,-0.94515 -6.13917,-1.61283 -6.2607,-1.2898 -16.50683,-4.15509 -20.53225,-5.74176 -1.33475,-0.52611 -2.50864,-0.95656 -2.60865,-0.95656 -0.10001,0 -6.94507,8.08485 -15.21125,17.96633 l -15.02942,17.96633 -10.02509,-5.79176 c -5.5138,-3.18547 -11.633697,-6.72211 -13.599773,-7.85921 -1.966077,-1.13709 -3.574685,-2.13598 -3.574685,-2.21974 0,-0.0838 3.52856,-9.82597 7.841244,-21.64936 4.312684,-11.82339 7.841244,-21.76181 7.841244,-22.08537 0,-0.32356 -1.433513,-1.7824 -3.185589,-3.24186 C 94.387235,306.47 84.220702,296.1962 81.671232,293.00883 c -0.862394,-1.07817 -1.827508,-1.96031 -2.1447,-1.96031 -0.317192,0 -10.250397,3.52856 -22.073789,7.84125 -11.823392,4.31268 -21.577741,7.84124 -21.676331,7.84124 -0.09859,0 -1.108418,-1.60861 -2.244065,-3.57468 -1.135647,-1.96608 -4.667417,-8.08165 -7.848379,-13.59015 L 19.9004,279.55072 37.87433,264.48336 c 9.885663,-8.28705 17.874755,-15.2998 17.753534,-15.58389 -1.998779,-4.68451 -6.193148,-20.06652 -7.403255,-27.14999 -0.216252,-1.26586 -0.566128,-1.79165 -1.312463,-1.97236 -0.559685,-0.13551 -10.876819,-1.96891 -22.926966,-4.07422 l -21.9093583,-3.82784 0,-15.84396 0,-15.84396 21.9093583,-3.82784 c 12.050147,-2.10532 22.367281,-3.93872 22.926966,-4.07423 0.746335,-0.18071 1.096211,-0.7065 1.312463,-1.97236 1.209738,-7.08129 5.409495,-22.48352 7.402075,-27.14643 0.120566,-0.28214 -7.869791,-7.2927 -17.756348,-15.57903 l -17.975558,-15.06604 5.786378,-10.02033 c 3.182508,-5.511178 6.715544,-11.628935 7.851191,-13.595012 1.135647,-1.966076 2.145476,-3.574684 2.244065,-3.574684 0.09859,0 9.852939,3.528559 21.676331,7.841243 11.823392,4.312685 21.756597,7.841243 22.073789,7.841243 0.317192,0 1.282306,-0.88214 2.1447,-1.96031 2.54947,-3.187364 12.716003,-13.461164 16.157049,-16.327517 1.752076,-1.459459 3.185589,-2.918295 3.185589,-3.241857 0,-0.323562 -3.52856,-10.261978 -7.841244,-22.08537 -4.312684,-11.823394 -7.841244,-21.565608 -7.841244,-21.649367 0,-0.08376 1.608608,-1.08264 3.574685,-2.219736 1.966076,-1.137096 8.085973,-4.67374 13.599773,-7.859209 l 10.02509,-5.791763 15.02942,17.966333 c 8.26618,9.881484 15.11124,17.966333 15.21125,17.966333 0.10001,0 1.2739,-0.430452 2.60865,-0.956558 4.02611,-1.586948 14.27196,-4.452047 20.53521,-5.742369 3.2426,-0.668024 5.98752,-1.306476 6.09982,-1.418786 0.11231,-0.112305 1.9979,-10.422272 4.1902,-22.911033 l 3.986,-22.7068376 15.75085,-0.1213554 15.75084,-0.1213554 0.25065,1.0438546 c 0.13786,0.5741201 1.9712,10.8988928 4.0741,22.9439388 l 3.82345,21.900085 1.35589,0.329461 c 0.74574,0.181207 4.36457,0.986521 8.04184,1.789594 5.2918,1.155661 16.6205,4.490685 19.66057,5.78782 0.28409,0.121221 7.29818,-7.869472 15.58687,-17.757087 l 15.07034,-17.977483 10.01248,5.784485 c 5.50686,3.181467 11.62109,6.714836 13.58716,7.851932 1.96608,1.137096 3.57469,2.13359 3.57469,2.21443 0,0.08084 -3.52856,9.813322 -7.84124,21.627736 -4.31269,11.814416 -7.84125,21.773008 -7.84125,22.130209 0,0.357201 0.5405,1.0036 1.20111,1.436451 1.81533,1.189447 14.85172,14.063446 17.4795,17.261756 1.26844,1.54383 2.5527,2.808455 2.85392,2.810265 0.30121,0.002 10.23139,-3.525248 22.06705,-7.837933 11.83567,-4.312684 21.58594,-7.841243 21.66727,-7.841243 0.0813,0 1.07703,1.608608 2.21268,3.574684 1.13564,1.966077 4.66732,8.081481 7.84817,13.589792 l 5.78336,10.0151 -17.97782,15.07759 c -13.5779,11.38748 -17.90381,15.25803 -17.6754,15.81487 2.09206,5.10017 5.59909,17.57886 6.8769,24.46936 0.39761,2.14408 0.94726,4.03697 1.22143,4.20642 0.27418,0.16946 2.60567,0.65611 5.18108,1.08145 2.57542,0.42535 12.67373,2.18072 22.44069,3.90082 l 17.75811,3.12747 0,15.84546 0,15.84547 -22.68469,3.95947 c -12.47658,2.17772 -22.80007,4.07486 -22.9411,4.21589 -0.14103,0.14103 -0.58087,2.00612 -0.97743,4.14467 -1.27593,6.88074 -4.78422,19.36225 -6.87499,24.45927 -0.22841,0.55684 4.0975,4.4274 17.6754,15.81487 l 17.97782,15.07759 -5.78336,10.01511 c -3.18085,5.50831 -6.71253,11.62371 -7.84817,13.58979 -1.13565,1.96607 -2.13136,3.57468 -2.21268,3.57468 -0.0813,0 -9.8316,-3.52856 -21.66727,-7.84124 -11.83566,-4.31269 -21.76584,-7.83976 -22.06705,-7.83794 -0.30122,0.002 -1.58548,1.26644 -2.85392,2.81027 -2.62778,3.19831 -15.66417,16.07231 -17.4795,17.26176 -0.66061,0.43285 -1.20111,1.07925 -1.20111,1.43645 0,0.3572 3.52856,10.31579 7.84125,22.13021 4.31268,11.81441 7.84124,21.54689 7.84124,21.62773 0,0.0808 -1.60861,1.07734 -3.57469,2.21443 -1.96607,1.1371 -8.0803,4.67047 -13.58716,7.85193 l -10.01248,5.78449 -15.07034,-17.97748 c -8.28869,-9.88762 -15.30278,-17.87831 -15.58687,-17.75709 -3.04007,1.29713 -14.36877,4.63216 -19.66057,5.78782 -3.67727,0.80307 -7.2961,1.60839 -8.04184,1.78959 l -1.35589,0.32946 -3.82345,21.90009 c -2.1029,12.04505 -3.93556,22.3671 -4.07258,22.93789 l -0.24913,1.03782 -15.68818,0 c -12.14664,0 -15.72898,-0.13016 -15.86892,-0.57657 z m 29.26843,-78.33237 c 10.44019,-1.17536 22.54684,-4.43059 32.73237,-8.80105 26.38868,-11.32301 48.38905,-33.15378 60.13019,-59.66664 9.8778,-22.3052 12.3674,-48.3315 6.94379,-72.59042 -8.65235,-38.70051 -37.89423,-71.173529 -75.66194,-84.022343 -27.26368,-9.275274 -56.18153,-8.203122 -83.11646,3.081618 -26.7213,11.195225 -49.93064,34.404565 -61.125867,61.125865 -6.389779,15.25142 -9.171206,29.07962 -9.171206,45.59581 0,16.51618 2.781427,30.34439 9.171206,45.59581 11.197867,26.72759 34.422257,49.93804 61.189047,61.15234 18.80446,7.87837 38.87574,10.78435 58.90887,8.52901 z"
       id="path3402"
       inkscape:connector-curvature="0" />
    <rect
       style="fill:#ff6600"
       id="rect3412"
       width="11.635"
       height="187.95576"
       x="190.17114"
       y="117.85277" />
    <rect
       style="fill:#ff6600"
       id="rect3412-3"
       width="11.634515"
       height="187.94792"
       x="231.04126"
       y="99.077568" />
    <rect
       style="fill:#ff6600"
       id="rect3412-6"
       width="11.634515"
       height="187.94792"
       x="145.9881"
       y="97.921677" />
    <rect
       style="fill:#ff6600"
       id="rect3444"
       width="40.737858"
       height="12.545598"
       x="234.0388"
       y="136.91818"
       transform="matrix(0.95237376,0.30493313,-0.47124233,0.88200378,0,0)" />
    <rect
       style="fill:#ff6600"
       id="rect3444-5"
       width="40.737858"
       height="12.545598"
       x="77.169083"
       y="-271.1412"
       transform="matrix(0.95237376,-0.30493313,-0.47124233,-0.88200378,0,0)" />
  </g>
  <g
     inkscape:groupmode="layer"
     id="layer3"
     inkscape:label="Layer 2" />
</svg>
